<?xml version="1.0" standalone="no"?>
<!DOCTYPE svg PUBLIC "-//W3C//DTD SVG 20010904//EN"
 "http://www.w3.org/TR/2001/REC-SVG-20010904/DTD/svg10.dtd">
<svg version="1.0" xmlns="http://www.w3.org/2000/svg"
 width="800.000000pt" height="800.000000pt" viewBox="0 0 800.000000 800.000000"
 preserveAspectRatio="xMidYMid meet">

<g transform="translate(0.000000,800.000000) scale(0.100000,-0.100000)"
fill="##D510D6" stroke="none">
<path d="M0 4000 l0 -4000 4000 0 4000 0 0 4000 0 4000 -4000 0 -4000 0 0
-4000z m4220 1192 c0 -19 -59 -98 -81 -109 -13 -6 -62 -19 -109 -28 -47 -9
-90 -21 -96 -26 -7 -5 -22 -38 -34 -72 -24 -65 -36 -84 -45 -75 -4 3 8 42 25
86 35 91 35 91 163 113 74 12 116 39 143 90 13 27 34 39 34 21z m-2079 -154
c-16 -46 -44 -121 -61 -167 -50 -137 -100 -319 -101 -369 0 -34 -2 -42 -8 -27
-20 48 36 263 130 507 27 70 49 138 49 150 1 20 2 21 11 6 7 -14 2 -39 -20
-100z m576 -9 c-24 -35 -61 -94 -81 -131 -21 -38 -42 -68 -47 -68 -5 0 -9 2
-9 6 0 12 116 206 144 240 47 57 42 24 -7 -47z m3250 -22 c-30 -45 -67 -103
-81 -129 -15 -27 -32 -48 -37 -48 -17 0 99 205 150 263 9 11 17 14 19 8 2 -6
-21 -48 -51 -94z m-1112 -34 c-34 -75 -85 -136 -159 -190 -94 -70 -186 -111
-186 -85 0 4 15 13 34 20 52 19 146 84 204 142 64 64 109 139 119 200 l8 45 3
-38 c2 -25 -6 -57 -23 -94z m-117 105 c8 -10 -6 -13 -61 -14 -48 -1 -94 -10
-137 -25 l-65 -24 -30 -92 c-16 -51 -33 -93 -37 -93 -13 0 -8 21 25 115 l32
90 80 27 c85 29 176 36 193 16z m-1827 -110 c0 -51 -10 -185 -21 -298 -11
-113 -20 -227 -20 -254 0 -34 -3 -47 -10 -40 -7 7 -2 97 15 280 14 148 25 302
25 343 0 41 3 71 6 68 4 -3 6 -48 5 -99z m2546 89 c18 -10 7 -12 -70 -13 -77
0 -103 -5 -160 -28 -37 -16 -74 -38 -82 -50 -20 -27 -90 -243 -105 -323 -7
-35 -16 -63 -21 -63 -21 0 41 235 102 387 21 52 145 100 259 102 30 0 65 -5
77 -12z m710 -224 c-8 -98 -14 -179 -12 -181 1 -1 76 7 166 18 89 11 168 20
175 20 15 0 -11 -79 -191 -580 -72 -202 -140 -373 -156 -396 -19 -28 -69 -69
-157 -127 -71 -47 -143 -92 -160 -101 -28 -14 -728 -106 -827 -107 -32 -1 -61
11 -140 58 -152 89 -145 56 -100 490 20 195 34 357 32 360 -3 2 -8 -14 -12
-35 -8 -48 31 -39 -380 -87 -170 -20 -320 -38 -331 -40 -18 -4 -25 -18 -39
-81 -9 -41 -14 -78 -11 -81 3 -3 145 11 316 32 171 20 314 35 317 32 8 -8 -49
-240 -61 -253 -6 -6 -137 -25 -291 -43 -154 -18 -297 -35 -317 -38 -36 -5 -38
-8 -49 -59 -10 -46 -10 -56 5 -78 9 -15 24 -26 34 -26 9 1 159 18 332 39 173
21 317 37 319 35 6 -5 -53 -255 -64 -269 -10 -14 -1062 -145 -1155 -145 -38 0
-61 11 -145 64 -103 65 -125 89 -125 141 0 27 178 811 206 906 3 12 29 18 112
27 59 7 147 17 196 24 l89 11 -36 18 c-20 11 -38 23 -41 28 -3 4 13 -1 36 -12
23 -12 68 -23 100 -25 48 -4 67 0 114 23 79 39 124 87 200 211 7 11 14 16 18
13 13 -12 -50 -115 -105 -170 -31 -33 -54 -59 -50 -59 4 0 59 7 123 15 114 15
117 15 152 -6 31 -18 40 -19 70 -9 23 7 39 21 48 40 7 16 15 25 18 20 3 -6 65
-2 149 7 81 10 135 20 125 24 -10 3 -45 15 -78 25 -32 10 -95 42 -139 71 -44
29 -82 51 -84 49 -2 -2 -7 -39 -12 -82 l-8 -79 -1 75 c-1 116 0 117 88 59 123
-82 225 -111 298 -86 51 18 68 3 20 -18 -28 -12 -30 -14 -10 -15 13 0 32 5 42
10 24 13 63 -8 55 -28 -12 -33 54 -109 102 -118 37 -7 113 17 133 41 6 8 9 23
5 34 -5 18 -8 19 -39 6 -18 -8 -36 -11 -40 -8 -15 15 -3 32 27 38 178 38 385
162 486 292 37 47 41 50 41 29 0 -25 -94 -129 -158 -176 -34 -24 -60 -45 -59
-47 2 -1 34 2 71 8 38 5 70 8 71 7 1 -2 -16 -191 -38 -420 -44 -464 -45 -454
22 -442 53 10 66 19 85 59 10 20 82 212 161 428 79 216 146 400 150 410 5 12
19 17 51 17 l44 0 0 -84 c0 -97 19 -136 85 -173 57 -32 121 -30 93 4 -12 15
-8 125 17 370 8 83 16 193 17 243 2 72 5 86 12 62 5 -19 3 -98 -7 -209z
m-2737 198 c0 -6 -23 -36 -51 -68 -98 -111 -158 -250 -160 -366 -1 -58 -1 -60
-11 -28 -26 91 54 298 159 411 57 62 63 67 63 51z m128 -78 c-27 -55 -79 -100
-126 -109 -43 -9 -41 9 4 25 45 16 99 63 112 98 27 74 25 70 29 50 3 -10 -6
-39 -19 -64z m707 37 c3 -5 2 -10 -4 -10 -5 0 -13 5 -16 10 -3 6 -2 10 4 10 5
0 13 -4 16 -10z m1344 -61 c1 -47 -28 -134 -41 -121 -6 6 -3 22 8 43 11 21 18
56 18 92 1 60 14 48 15 -14z m-1501 -68 c-17 -24 -78 -75 -106 -90 -13 -7 -60
-20 -105 -30 l-82 -17 -12 -45 c-8 -24 -17 -80 -21 -124 -6 -57 -11 -75 -17
-61 -10 23 10 175 29 221 13 30 19 33 82 44 87 15 139 40 188 90 38 39 69 47
44 12z m-1390 -123 c-3 -7 -36 -17 -74 -24 -119 -21 -119 -20 -154 -131 -44
-138 -51 -147 -107 -138 -52 8 -98 23 -91 30 3 3 30 0 62 -7 74 -14 78 -10
119 123 37 118 40 121 155 144 87 17 94 17 90 3z m3260 0 c-3 -7 -27 -16 -54
-20 -27 -4 -69 -13 -94 -21 l-45 -13 -35 -107 c-45 -137 -52 -144 -124 -128
-31 7 -59 17 -62 23 -5 7 -2 9 8 6 9 -4 36 -9 61 -13 56 -9 63 0 107 138 35
111 34 110 155 132 91 17 87 17 83 3z m-3624 -47 c-2 -3 -12 3 -22 13 -16 17
-16 18 5 5 12 -7 20 -15 17 -18z m3261 1 c-3 -3 -11 0 -18 7 -9 10 -8 11 6 5
10 -3 15 -9 12 -12z m-3316 -141 c-17 -49 -112 -136 -190 -175 -61 -31 -82
-36 -140 -36 -61 0 -72 3 -97 28 -15 15 -18 19 -7 10 16 -13 39 -18 91 -18
102 0 176 38 273 140 42 43 77 79 78 79 1 1 -3 -12 -8 -28z m1261 -17 c-29
-87 -149 -174 -240 -174 -54 0 -135 36 -170 75 l-25 29 40 -31 c101 -77 212
-69 312 20 21 20 49 56 62 82 27 54 39 53 21 -1z m1260 32 c0 -15 -18 -31 -26
-23 -7 7 7 37 17 37 5 0 9 -6 9 -14z m-2032 -212 c18 -8 46 -14 63 -12 17 2
32 -1 33 -7 3 -21 -60 -15 -99 9 -45 29 -44 34 3 10z m351 -110 c80 -32 130
-121 117 -212 -9 -69 -136 -603 -152 -641 -8 -20 -27 -49 -42 -65 -33 -35
-284 -204 -321 -217 -22 -7 -1176 -149 -1215 -149 -9 0 13 113 84 418 158 677
174 744 185 748 5 2 267 35 580 74 599 73 680 78 764 44z"/>
<path d="M2436 3929 c-33 -5 -63 -12 -67 -16 -10 -11 -143 -582 -137 -588 8
-9 171 16 197 30 15 7 35 28 44 47 19 36 117 449 117 491 0 46 -34 54 -154 36z"/>
</g>
</svg>
